<mxfile host="app.diagrams.net" modified="2020-12-12T05:23:05.050Z" agent="5.0 (Windows NT 10.0; Win64; x64) AppleWebKit/537.36 (KHTML, like Gecko) Chrome/87.0.4280.88 Safari/537.36" etag="tWJZ_7xxwjk-p-Gw3RqY" version="14.0.1" type="github">
  <diagram id="1kJs44cWYqPL19ZjNiLm" name="Page-1">
    <mxGraphModel dx="1278" dy="500" grid="1" gridSize="10" guides="1" tooltips="1" connect="1" arrows="1" fold="1" page="1" pageScale="1" pageWidth="827" pageHeight="1169" math="0" shadow="0">
      <root>
        <mxCell id="0" />
        <mxCell id="1" parent="0" />
        <mxCell id="awcaUdx00i1b3QdDf-VS-2" value="warga" style="shape=umlLifeline;participant=umlActor;perimeter=lifelinePerimeter;whiteSpace=wrap;html=1;container=1;collapsible=0;recursiveResize=0;verticalAlign=top;spacingTop=36;outlineConnect=0;size=40;strokeWidth=2;" parent="1" vertex="1">
          <mxGeometry x="30" y="160" width="20" height="480" as="geometry" />
        </mxCell>
        <mxCell id="awcaUdx00i1b3QdDf-VS-3" value="UI pengajuan" style="shape=umlLifeline;perimeter=lifelinePerimeter;whiteSpace=wrap;html=1;container=1;collapsible=0;recursiveResize=0;outlineConnect=0;strokeWidth=2;" parent="1" vertex="1">
          <mxGeometry x="150" y="160" width="100" height="480" as="geometry" />
        </mxCell>
        <mxCell id="awcaUdx00i1b3QdDf-VS-16" value="" style="edgeStyle=orthogonalEdgeStyle;rounded=0;orthogonalLoop=1;jettySize=auto;html=1;strokeColor=#808080;strokeWidth=2;exitX=1.052;exitY=0.671;exitDx=0;exitDy=0;exitPerimeter=0;entryX=1.052;entryY=0.149;entryDx=0;entryDy=0;entryPerimeter=0;" parent="awcaUdx00i1b3QdDf-VS-3" source="awcaUdx00i1b3QdDf-VS-6" target="awcaUdx00i1b3QdDf-VS-15" edge="1">
          <mxGeometry relative="1" as="geometry" />
        </mxCell>
        <mxCell id="awcaUdx00i1b3QdDf-VS-17" value="tampilan pengajuan" style="edgeLabel;html=1;align=center;verticalAlign=middle;resizable=0;points=[];" parent="awcaUdx00i1b3QdDf-VS-16" vertex="1" connectable="0">
          <mxGeometry x="0.0946" relative="1" as="geometry">
            <mxPoint as="offset" />
          </mxGeometry>
        </mxCell>
        <mxCell id="awcaUdx00i1b3QdDf-VS-6" value="" style="html=1;points=[];perimeter=orthogonalPerimeter;strokeWidth=2;strokeColor=none;fillColor=#67AB9F;" parent="awcaUdx00i1b3QdDf-VS-3" vertex="1">
          <mxGeometry x="42.5" y="70" width="15" height="30" as="geometry" />
        </mxCell>
        <mxCell id="awcaUdx00i1b3QdDf-VS-15" value="" style="html=1;points=[];perimeter=orthogonalPerimeter;strokeWidth=2;strokeColor=none;fillColor=#67AB9F;" parent="awcaUdx00i1b3QdDf-VS-3" vertex="1">
          <mxGeometry x="42.5" y="130" width="15" height="30" as="geometry" />
        </mxCell>
        <mxCell id="awcaUdx00i1b3QdDf-VS-34" value="" style="html=1;points=[];perimeter=orthogonalPerimeter;strokeWidth=2;fillColor=#67AB9F;strokeColor=none;" parent="awcaUdx00i1b3QdDf-VS-3" vertex="1">
          <mxGeometry x="42.5" y="280" width="15" height="80" as="geometry" />
        </mxCell>
        <mxCell id="awcaUdx00i1b3QdDf-VS-46" value="" style="html=1;points=[];perimeter=orthogonalPerimeter;strokeWidth=2;fillColor=#67AB9F;strokeColor=none;" parent="awcaUdx00i1b3QdDf-VS-3" vertex="1">
          <mxGeometry x="42.5" y="384.5" width="15" height="80" as="geometry" />
        </mxCell>
        <mxCell id="awcaUdx00i1b3QdDf-VS-4" value="CTRL pengajuan" style="shape=umlLifeline;perimeter=lifelinePerimeter;whiteSpace=wrap;html=1;container=1;collapsible=0;recursiveResize=0;outlineConnect=0;strokeWidth=2;" parent="1" vertex="1">
          <mxGeometry x="340.14" y="160" width="100" height="480" as="geometry" />
        </mxCell>
        <mxCell id="awcaUdx00i1b3QdDf-VS-37" value="" style="html=1;points=[];perimeter=orthogonalPerimeter;strokeWidth=2;fillColor=#67AB9F;strokeColor=none;" parent="awcaUdx00i1b3QdDf-VS-4" vertex="1">
          <mxGeometry x="42.5" y="280" width="15" height="80" as="geometry" />
        </mxCell>
        <mxCell id="awcaUdx00i1b3QdDf-VS-48" value="" style="html=1;points=[];perimeter=orthogonalPerimeter;strokeWidth=2;fillColor=#67AB9F;strokeColor=none;" parent="awcaUdx00i1b3QdDf-VS-4" vertex="1">
          <mxGeometry x="42.5" y="384.5" width="15" height="80" as="geometry" />
        </mxCell>
        <mxCell id="awcaUdx00i1b3QdDf-VS-5" value="db pengajuan" style="shape=umlLifeline;perimeter=lifelinePerimeter;whiteSpace=wrap;html=1;container=1;collapsible=0;recursiveResize=0;outlineConnect=0;strokeWidth=2;" parent="1" vertex="1">
          <mxGeometry x="530" y="160" width="100" height="480" as="geometry" />
        </mxCell>
        <mxCell id="awcaUdx00i1b3QdDf-VS-40" value="" style="html=1;points=[];perimeter=orthogonalPerimeter;strokeWidth=2;fillColor=#67AB9F;strokeColor=none;" parent="awcaUdx00i1b3QdDf-VS-5" vertex="1">
          <mxGeometry x="42.5" y="280" width="15" height="80" as="geometry" />
        </mxCell>
        <mxCell id="awcaUdx00i1b3QdDf-VS-7" value="open" style="html=1;verticalAlign=bottom;startArrow=oval;endArrow=block;startSize=8;strokeColor=#808080;strokeWidth=2;" parent="1" source="awcaUdx00i1b3QdDf-VS-2" target="awcaUdx00i1b3QdDf-VS-6" edge="1">
          <mxGeometry relative="1" as="geometry">
            <mxPoint x="140" y="230" as="sourcePoint" />
          </mxGeometry>
        </mxCell>
        <mxCell id="awcaUdx00i1b3QdDf-VS-12" value="" style="html=1;points=[];perimeter=orthogonalPerimeter;strokeWidth=2;strokeColor=none;fillColor=#67AB9F;" parent="1" vertex="1">
          <mxGeometry x="382.64" y="205" width="15" height="80" as="geometry" />
        </mxCell>
        <mxCell id="awcaUdx00i1b3QdDf-VS-13" value="" style="edgeStyle=orthogonalEdgeStyle;rounded=0;orthogonalLoop=1;jettySize=auto;html=1;strokeColor=#808080;strokeWidth=2;" parent="1" source="awcaUdx00i1b3QdDf-VS-6" target="awcaUdx00i1b3QdDf-VS-12" edge="1">
          <mxGeometry relative="1" as="geometry" />
        </mxCell>
        <mxCell id="awcaUdx00i1b3QdDf-VS-14" value="display pengajuan" style="edgeLabel;html=1;align=center;verticalAlign=middle;resizable=0;points=[];" parent="awcaUdx00i1b3QdDf-VS-13" vertex="1" connectable="0">
          <mxGeometry x="-0.0808" y="1" relative="1" as="geometry">
            <mxPoint x="14.88" y="1" as="offset" />
          </mxGeometry>
        </mxCell>
        <mxCell id="awcaUdx00i1b3QdDf-VS-35" value="surat" style="html=1;verticalAlign=bottom;startArrow=oval;endArrow=block;startSize=8;strokeColor=#808080;strokeWidth=2;" parent="1" source="awcaUdx00i1b3QdDf-VS-2" target="awcaUdx00i1b3QdDf-VS-34" edge="1">
          <mxGeometry relative="1" as="geometry">
            <mxPoint x="135" y="440" as="sourcePoint" />
          </mxGeometry>
        </mxCell>
        <mxCell id="awcaUdx00i1b3QdDf-VS-38" value="" style="edgeStyle=orthogonalEdgeStyle;rounded=0;orthogonalLoop=1;jettySize=auto;html=1;strokeColor=#808080;strokeWidth=2;" parent="1" source="awcaUdx00i1b3QdDf-VS-34" target="awcaUdx00i1b3QdDf-VS-37" edge="1">
          <mxGeometry relative="1" as="geometry" />
        </mxCell>
        <mxCell id="awcaUdx00i1b3QdDf-VS-39" value="input data pembuatan surat" style="edgeLabel;html=1;align=center;verticalAlign=middle;resizable=0;points=[];" parent="awcaUdx00i1b3QdDf-VS-38" vertex="1" connectable="0">
          <mxGeometry x="-0.1333" y="1" relative="1" as="geometry">
            <mxPoint as="offset" />
          </mxGeometry>
        </mxCell>
        <mxCell id="awcaUdx00i1b3QdDf-VS-41" value="" style="edgeStyle=orthogonalEdgeStyle;rounded=0;orthogonalLoop=1;jettySize=auto;html=1;strokeColor=#808080;strokeWidth=2;" parent="1" source="awcaUdx00i1b3QdDf-VS-37" target="awcaUdx00i1b3QdDf-VS-40" edge="1">
          <mxGeometry relative="1" as="geometry" />
        </mxCell>
        <mxCell id="awcaUdx00i1b3QdDf-VS-42" value="rec.pembuatan surat" style="edgeLabel;html=1;align=center;verticalAlign=middle;resizable=0;points=[];" parent="awcaUdx00i1b3QdDf-VS-41" vertex="1" connectable="0">
          <mxGeometry x="0.1515" y="1" relative="1" as="geometry">
            <mxPoint x="-16.64" y="1" as="offset" />
          </mxGeometry>
        </mxCell>
        <mxCell id="awcaUdx00i1b3QdDf-VS-49" value="" style="edgeStyle=orthogonalEdgeStyle;rounded=0;orthogonalLoop=1;jettySize=auto;html=1;strokeColor=#808080;strokeWidth=2;" parent="1" source="awcaUdx00i1b3QdDf-VS-46" target="awcaUdx00i1b3QdDf-VS-48" edge="1">
          <mxGeometry relative="1" as="geometry" />
        </mxCell>
        <mxCell id="awcaUdx00i1b3QdDf-VS-50" value="logout" style="edgeLabel;html=1;align=center;verticalAlign=middle;resizable=0;points=[];" parent="awcaUdx00i1b3QdDf-VS-49" vertex="1" connectable="0">
          <mxGeometry x="-0.1173" y="2" relative="1" as="geometry">
            <mxPoint x="15.5" y="2.5" as="offset" />
          </mxGeometry>
        </mxCell>
        <mxCell id="awcaUdx00i1b3QdDf-VS-47" value="logout" style="html=1;verticalAlign=bottom;startArrow=oval;endArrow=block;startSize=8;strokeColor=#808080;strokeWidth=2;" parent="1" source="awcaUdx00i1b3QdDf-VS-2" target="awcaUdx00i1b3QdDf-VS-46" edge="1">
          <mxGeometry relative="1" as="geometry">
            <mxPoint x="90" y="544.5" as="sourcePoint" />
          </mxGeometry>
        </mxCell>
      </root>
    </mxGraphModel>
  </diagram>
</mxfile>
